<svg width="73" height="34" viewBox="0 0 73 34" fill="none" xmlns="http://www.w3.org/2000/svg">
<path d="M6.12 17.072L2.412 26H0.576L11.412 0.079999H12.42L23.292 26H21.348L17.64 17.072H6.12ZM11.808 2.96C11.784 2.984 11.736 3.128 11.664 3.392C11.328 4.424 11.004 5.3 10.692 6.02L6.732 15.596H17.028L13.068 6.056C12.228 4.232 11.808 3.2 11.808 2.96ZM28.1911 23.336V2.636H29.8111V22.292C29.8111 24.236 29.5111 25.952 28.9111 27.44C28.3111 28.928 27.6151 30.08 26.8231 30.896C26.0311 31.712 25.0111 32.564 23.7631 33.452L23.0071 32.372C26.4631 29.852 28.1911 26.84 28.1911 23.336ZM39.6087 17.9L36.2607 26H34.5687L44.3607 2.492H45.3327L55.1967 26H53.3607L49.9767 17.9H39.6087ZM44.7567 5.156C44.3967 6.236 44.0727 7.136 43.7847 7.856L40.1847 16.496H49.4007L45.8367 7.892C45.2847 6.548 44.9247 5.636 44.7567 5.156ZM63.747 26H62.127V17.648L53.307 2.636H55.287L62.091 14.228C62.619 15.284 62.919 15.848 62.991 15.92C63.135 15.608 63.435 15.056 63.891 14.264L70.695 2.636H72.567L63.747 17.72V26Z" fill="white"/>
</svg>
