<?xml version="1.0" encoding="UTF-8"?>
<svg version="1.1" xmlns="http://www.w3.org/2000/svg" width="512" height="512">
<path d="M0 0 C6.01882165 4.74161864 11.42240726 10.24930573 16.84765625 15.64453125 C17.66318466 16.45435959 18.47871307 17.26418793 19.31895447 18.09855652 C21.03213703 19.80234947 22.74391425 21.50755657 24.4543457 23.21411133 C27.05165575 25.80169635 29.65945184 28.37840169 32.26757812 30.95507812 C33.94076383 32.62173385 35.61331118 34.28903072 37.28515625 35.95703125 C38.44012352 37.09347832 38.44012352 37.09347832 39.61842346 38.25288391 C47.1204524 45.78556802 52.89298153 53.81018616 57.0859375 63.5859375 C57.42921082 64.36177689 57.77248413 65.13761627 58.12615967 65.93696594 C58.84885423 67.57406173 59.56669776 69.21330699 60.27984619 70.85458374 C61.39129791 73.41250844 62.51594598 75.96426922 63.64404297 78.51489258 C66.29504026 84.51619641 68.92164904 90.52804061 71.54492188 96.54150391 C78.61950559 112.73788556 86.09997689 124.798324 99 137 C101.10213121 135.97048243 103.15920544 134.90890384 105.19140625 133.74609375 C113.06334785 129.40161198 120.35412532 127.80342868 129.1875 130.0625 C138.26962339 132.75055403 145.22108662 140.88306802 151.6875 147.375 C152.51572266 148.18710938 153.34394531 148.99921875 154.19726562 149.8359375 C161.6992092 157.33187471 167.78614524 164.63450517 168.06640625 175.59765625 C167.46256044 188.6077886 160.06045305 196.67587059 151.1862793 205.44482422 C150.08419286 206.55205859 148.98317843 207.66036085 147.88314819 208.76963806 C144.91307089 211.7581227 141.92763402 214.73079641 138.9384954 217.70020056 C135.80206922 220.8201567 132.67834528 223.95278836 129.5526886 227.08352661 C124.30504232 232.33568352 119.04733103 237.57759668 113.78344727 242.81347656 C107.70835516 248.85649658 101.64948458 254.9154163 95.59903592 260.98310268 C89.76223613 266.83579391 83.9141617 272.67709315 78.06089211 278.51330948 C75.57694709 280.99040391 73.09697067 283.47137231 70.62015343 285.95559311 C67.70143702 288.88199962 64.77293638 291.79825776 61.83675766 294.70713997 C60.76430503 295.77273723 59.69518437 296.84170067 58.62977409 297.91433907 C50.69770877 305.89397867 43.64591206 312.04814145 31.875 312.3125 C21.04540117 312.16858507 15.10677049 307.91937881 7.52490234 300.48974609 C5.7685629 298.77389863 3.98685125 297.08600079 2.20703125 295.39453125 C0.86565752 294.09793511 -0.47418682 292.79975492 -1.8125 291.5 C-2.44687988 290.89567139 -3.08125977 290.29134277 -3.73486328 289.66870117 C-10.46848701 283.01606604 -15.05285314 275.67867139 -15.4375 266.0625 C-15.4301623 259.50259546 -13.59561096 255.15964184 -10.3125 249.55859375 C-8.69571536 246.88609225 -8.69571536 246.88609225 -9 243 C-16.9582003 233.11961588 -29.69772867 227.30171902 -42.13666916 225.73002625 C-44.43440944 225.53527559 -46.73050305 225.38562516 -49.03271484 225.25390625 C-49.89920151 225.19830536 -50.76568817 225.14270447 -51.65843201 225.0854187 C-54.5088795 224.9041843 -57.35985167 224.73337145 -60.2109375 224.5625 C-62.22234425 224.43632832 -64.23370637 224.30944345 -66.24502563 224.18188477 C-71.54465894 223.84745305 -76.84478313 223.52159032 -82.14508057 223.19787598 C-87.44594273 222.87312692 -92.74641146 222.54211955 -98.046875 222.2109375 C-99.07739109 222.14667068 -100.10790718 222.08240387 -101.16965103 222.01618958 C-106.26484753 221.69794938 -111.35984378 221.37686839 -116.45452881 221.05053711 C-117.9173699 220.956856 -117.9173699 220.956856 -119.40976334 220.86128235 C-121.31703276 220.739027 -123.22428767 220.61654503 -125.13152695 220.49382019 C-130.56072498 220.14686346 -135.99033734 219.8331832 -141.42285156 219.54296875 C-143.73245616 219.40421535 -146.04203023 219.26495219 -148.3515625 219.125 C-149.32523773 219.0830249 -150.29891296 219.0410498 -151.30209351 218.99780273 C-159.46101778 218.46307467 -166.67764535 215.7083348 -172.4375 209.75 C-176.58944535 204.32777109 -178.61591568 197.85686018 -178.27734375 191.03125 C-177.2266565 183.33607577 -174.17530359 176.88790979 -168 172 C-161.58385842 168.38708984 -156.00393316 167.40064115 -148.71484375 167.390625 C-147.77314835 167.37408875 -146.83145294 167.35755249 -145.86122131 167.34051514 C-142.88657902 167.29236581 -139.91244666 167.27073806 -136.9375 167.25 C-134.90687584 167.22181264 -132.87627509 167.19188138 -130.84570312 167.16015625 C-125.89717747 167.08661594 -120.94892942 167.03683988 -116 167 C-124.04978086 158.8805097 -132.10779436 150.76928818 -140.17623043 142.66833305 C-143.9230351 138.9059158 -147.66701558 135.14077767 -151.40454102 131.36914062 C-155.01592215 127.72500882 -158.63472059 124.08839329 -162.25863838 120.45672989 C-163.63546434 119.07438856 -165.00966062 117.68942257 -166.38108635 116.30172348 C-179.12184332 103.37811597 -179.12184332 103.37811597 -195.125 95.1875 C-196.26195312 94.78917969 -197.39890625 94.39085937 -198.5703125 93.98046875 C-204.45196152 92.29904061 -210.05116021 91.88467637 -216.1484375 92.0078125 C-217.49738828 92.0253308 -218.84634711 92.04223889 -220.1953125 92.05859375 C-222.28408897 92.08944066 -224.37244652 92.12494322 -226.4609375 92.17138672 C-237.07367195 92.39415402 -246.35448573 92.30601673 -254.49609375 84.75 C-259.70669509 78.68675481 -261.35754646 71.74001771 -261.28515625 63.921875 C-260.66237458 57.5404957 -257.58409597 51.46020149 -253 47 C-246.8241121 42.91369823 -241.52237391 40.91106011 -234.08056641 40.82299805 C-233.12832184 40.81016281 -232.17607727 40.79732758 -231.19497681 40.78410339 C-230.17415009 40.77671646 -229.15332336 40.76932953 -228.1015625 40.76171875 C-227.0344101 40.753647 -225.96725769 40.74557526 -224.86776733 40.73725891 C-222.6066855 40.72344079 -220.345583 40.7127085 -218.08447266 40.70483398 C-215.79599804 40.69336739 -213.50754902 40.67300117 -211.21923828 40.64331055 C-187.6152038 40.33736397 -168.16434613 43.50241971 -150 60 C-148.65631785 61.32290356 -147.31982846 62.65329721 -146 64 C-146.04640625 62.9378125 -146.0928125 61.875625 -146.140625 60.78125 C-146.61969622 45.4943587 -146.61969622 45.4943587 -142 40 C-135.57410935 33.19611578 -130.60454874 30.02926724 -121.1875 29.625 C-109.22405761 29.96303338 -103.41950544 36.01393065 -95.52734375 44.296875 C-94.69332031 45.18890625 -93.85929688 46.0809375 -93 47 C-93.16081055 46.39188477 -93.32162109 45.78376953 -93.48730469 45.15722656 C-95.17689991 38.04805351 -94.60151104 30.39065117 -91 24 C-86.80866371 17.8019027 -81.48585584 13.48056668 -74 12 C-65.79680302 11.21197635 -59.01547401 11.92814241 -52.4765625 17.23681641 C-48.14032763 20.97526291 -44.04743002 24.95256998 -40 29 C-40.03480469 28.23816406 -40.06960938 27.47632813 -40.10546875 26.69140625 C-40.35637302 17.12120071 -39.38079402 9.68842593 -32.6796875 2.50390625 C-23.32443529 -5.87230794 -10.55443102 -6.36730535 0 0 Z " fill="#2A5FEC" transform="translate(319,102)"/>
<path d="M0 0 C6.84079249 5.25422315 13.4331129 11.29591331 17.34375 19.1171875 C17.34375 19.7771875 17.34375 20.4371875 17.34375 21.1171875 C16.42327881 20.83351318 15.50280762 20.54983887 14.55444336 20.25756836 C2.19527268 16.75433307 -9.82386697 16.53427593 -22.60620117 16.65063477 C-26.11229083 16.67984195 -29.61688496 16.67115001 -33.12304688 16.65820312 C-35.38281975 16.66443556 -37.64258795 16.67282261 -39.90234375 16.68359375 C-40.93483749 16.68065811 -41.96733124 16.67772247 -43.03111267 16.67469788 C-54.61291028 16.82377198 -63.71922672 19.95266125 -72.41015625 27.67578125 C-78.53509371 34.07703168 -80.85947348 42.02302661 -81.09375 50.7421875 C-80.74896225 60.14043418 -78.12251478 67.21401294 -71.65625 74.1171875 C-63.57603443 81.37624295 -55.4428764 84.32266425 -44.58984375 84.109375 C-43.20248156 84.09183613 -41.81511125 84.07493006 -40.42773438 84.05859375 C-38.27116627 84.02790047 -36.11502093 83.99264965 -33.95874023 83.94580078 C-17.15214754 83.60079173 -4.4026569 86.71250764 8.34375 98.1171875 C-0.6644944 110.04702468 -15.09016395 116.71721184 -29.65625 119.1171875 C-49.07397476 120.94049533 -65.88193702 116.79093908 -81.47265625 104.984375 C-94.78730412 93.64151468 -103.88676229 77.73346936 -105.34130859 60.18237305 C-106.59057591 39.93802009 -100.85868807 23.21149842 -87.59765625 7.7109375 C-64.78218968 -16.73719549 -26.83709061 -19.02276129 0 0 Z " fill="#5C88FA" transform="translate(130.65625,117.8828125)"/>
</svg>
