<?xml version="1.0" encoding="UTF-8"?>
<svg version="1.1" xmlns="http://www.w3.org/2000/svg" width="512" height="512">
<path d="M0 0 C1.01790619 0.00215515 2.03581238 0.0043103 3.08456421 0.00653076 C17.69363523 0.05620146 32.02575853 0.30709809 46.375 3.3125 C47.34985352 3.51117676 48.32470703 3.70985352 49.32910156 3.91455078 C88.38660539 12.08468046 124.82400319 27.71035417 156.375 52.3125 C157.25929688 52.98539063 158.14359375 53.65828125 159.0546875 54.3515625 C174.64162389 66.45260257 189.26666068 80.75087979 201.375 96.3125 C202.15101563 97.2715625 202.92703125 98.230625 203.7265625 99.21875 C238.25804162 142.62975232 256.81395322 197.76040062 256.69067383 253.03979492 C256.6875221 255.97938487 256.71104926 258.9179558 256.73632812 261.85742188 C256.78098737 275.23056192 255.57551542 288.12666711 253.375 301.3125 C253.09281616 303.01805054 253.09281616 303.01805054 252.80493164 304.75805664 C245.77946967 343.86954746 228.79665906 381.05202178 204.375 412.3125 C203.61574219 413.28445313 202.85648437 414.25640625 202.07421875 415.2578125 C189.73986402 430.63741644 175.93895499 445.19015196 160.375 457.3125 C159.43914062 458.07691406 158.50328125 458.84132813 157.5390625 459.62890625 C125.58628299 485.2157721 86.41988322 501.72551276 46.375 509.3125 C45.56562988 509.47621094 44.75625977 509.63992188 43.92236328 509.80859375 C13.88110013 515.67977137 -20.7615176 514.58512909 -50.625 508.3125 C-52.14794678 507.99901611 -52.14794678 507.99901611 -53.70166016 507.67919922 C-90.84546555 499.78695344 -125.70945445 483.68345578 -155.625 460.3125 C-156.59695312 459.55324219 -157.56890625 458.79398437 -158.5703125 458.01171875 C-173.94991644 445.67736402 -188.50265196 431.87645499 -200.625 416.3125 C-201.77162109 414.90871094 -201.77162109 414.90871094 -202.94140625 413.4765625 C-228.5282721 381.52378299 -245.03801276 342.35738322 -252.625 302.3125 C-252.78871094 301.50312988 -252.95242187 300.69375977 -253.12109375 299.85986328 C-258.59069558 271.87335724 -258.46977511 238.21828161 -252.625 210.3125 C-252.42632324 209.33764648 -252.22764648 208.36279297 -252.02294922 207.35839844 C-241.93598313 159.13741149 -219.89911449 114.53770064 -185.40722656 79.14160156 C-183.63301167 77.32072238 -181.87518486 75.48496071 -180.1171875 73.6484375 C-173.01562574 66.30860161 -165.60158994 59.73928631 -157.40917969 53.64355469 C-155.59628085 52.2910746 -153.80174757 50.91656557 -152.0078125 49.5390625 C-143.60124472 43.15234877 -134.85975388 37.61076633 -125.65234375 32.45166016 C-123.78933792 31.40484113 -121.94116361 30.33571119 -120.09375 29.26171875 C-83.4933446 8.69459905 -41.63834482 -0.15855121 0 0 Z " fill="#3AAAFE" transform="translate(255.625,-0.3125)"/>
<path d="M0 0 C56.88270498 0 110.85670756 16.79915134 156 52 C156.88429688 52.67289063 157.76859375 53.34578125 158.6796875 54.0390625 C174.26662389 66.14010257 188.89166068 80.43837979 201 96 C201.77601563 96.9590625 202.55203125 97.918125 203.3515625 98.90625 C237.88304162 142.31725232 256.43895322 197.44790062 256.31567383 252.72729492 C256.3125221 255.66688487 256.33604926 258.6054558 256.36132812 261.54492188 C256.40598737 274.91806192 255.20051542 287.81416711 253 301 C252.81187744 302.13703369 252.62375488 303.27406738 252.42993164 304.44555664 C245.40446967 343.55704746 228.42165906 380.73952178 204 412 C203.24074219 412.97195313 202.48148438 413.94390625 201.69921875 414.9453125 C189.36486402 430.32491644 175.56395499 444.87765196 160 457 C159.06414062 457.76441406 158.12828125 458.52882813 157.1640625 459.31640625 C122.18526403 487.32642096 78.71080417 504.50885234 34.5625 510.8125 C33.74322021 510.93665283 32.92394043 511.06080566 32.07983398 511.1887207 C25.08560799 512.08694611 18.13175936 512.05720888 11.09350586 512.0300293 C10.02585747 512.02786156 8.95820908 512.02569382 7.8582077 512.02346039 C5.23879159 512.0178292 2.61940269 512.00994562 0 512 C-0.18694911 497.48362369 -0.32745486 482.96743421 -0.41449738 468.4501009 C-0.45573535 461.70924432 -0.51194566 454.96913601 -0.60351562 448.22875977 C-0.69182267 441.7254587 -0.7382578 435.22264338 -0.75901794 428.71877098 C-0.77381463 426.23592062 -0.80270959 423.75311345 -0.84584045 421.27059364 C-0.90381772 417.79574845 -0.91191708 414.32412698 -0.90820312 410.84887695 C-0.95134644 409.30491745 -0.95134644 409.30491745 -0.99536133 407.72976685 C-0.96292892 404.9302885 -0.86789983 402.66324944 0 400 C1.90936732 398.2180111 3.66835765 397.17720345 6.04191303 396.1011095 C9.73384308 394.02499167 10.9105114 390.13151244 12.48046875 386.3671875 C12.85270065 385.52993134 13.22493256 384.69267517 13.60844421 383.83004761 C14.7600719 381.22870849 15.87986746 378.61502372 17 376 C17.68922579 374.44300704 18.3813484 372.88729249 19.07666016 371.33300781 C20.81462706 367.43789311 22.52543521 363.53158269 24.22680664 359.62036133 C26.16148474 355.17369056 28.10654775 350.73156167 30.05078125 346.2890625 C30.45507355 345.36478455 30.85936584 344.44050659 31.27590942 343.48822021 C35.80688108 333.1393631 40.40310822 322.81969847 45 312.5 C51.37463808 298.18457626 57.71235512 283.85384515 64 269.5 C70.26938953 255.18900428 76.58542464 240.89948732 82.9375 226.625 C89.38388234 212.1355969 95.82838276 197.64539577 102.24661255 183.14349365 C103.07137903 181.28061505 103.89678088 179.41801761 104.72286987 177.5557251 C109.69458266 166.37551318 109.69458266 166.37551318 114.50390625 155.125 C114.9381189 154.08666016 114.9381189 154.08666016 115.38110352 153.02734375 C116.91029319 148.01811652 116.7068088 143.0320753 115 138.125 C112.12456781 135.0698533 109.1077896 132.97925634 105 132 C98.65592276 132.13294888 93.49451965 133.70570942 87.8125 136.40234375 C86.66622635 136.92650627 86.66622635 136.92650627 85.49679565 137.46125793 C83.85074855 138.21555068 82.20732521 138.975591 80.56634521 139.74084473 C77.05527329 141.37801447 73.53154325 142.98704413 70.00827026 144.5977478 C68.16219416 145.44191586 66.31676302 146.28749568 64.47195435 147.13442993 C54.32343504 151.78806125 44.10324362 156.2750256 33.875 160.75 C32.17703802 161.49460698 30.47912023 162.2393147 28.78125 162.98413086 C21.48996531 166.18007669 14.19277017 169.36259841 6.8828125 172.515625 C5.76535645 172.99805664 4.64790039 173.48048828 3.49658203 173.97753906 C1 175 1 175 0 175 C0 117.25 0 59.5 0 0 Z " fill="#008ADF" transform="translate(256,0)"/>
<path d="M0 0 C4.35540435 2.25835781 7.1952966 4.3879802 9 9 C9.87797697 16.50888143 8.23396126 22.10437496 5.06640625 28.83984375 C4.65983292 29.74435776 4.25325958 30.64887177 3.83436584 31.58079529 C2.98645512 33.46540995 2.1312238 35.34674736 1.26885986 37.22479248 C-0.31559755 40.69026432 -1.8438155 44.1787599 -3.36976624 47.67028809 C-5.2525673 51.97422038 -7.15969165 56.26738579 -9.0625 60.5625 C-9.89452815 62.44316198 -10.72647641 64.32385931 -11.55834961 66.20458984 C-17.03536194 78.58302953 -22.53374935 90.95191036 -28.03872681 103.31793213 C-33.31539143 115.17387378 -38.54149529 127.05147587 -43.75 138.9375 C-50.9266893 155.31460473 -58.1658654 171.66316314 -65.44140625 187.99658203 C-69.71861977 197.6014358 -73.97936335 207.21306629 -78.20703125 216.83984375 C-79.06189343 218.78403316 -79.91679206 220.72820653 -80.77172852 222.67236328 C-81.99060731 225.44440941 -83.20823711 228.21695957 -84.42111206 230.99163818 C-86.90745413 236.67956683 -89.4269083 242.35075767 -92 248 C-92.34909424 248.77083923 -92.69818848 249.54167847 -93.05786133 250.33587646 C-94.07590456 252.56076688 -95.11889444 254.77193406 -96.171875 256.98046875 C-96.61832367 257.96156364 -96.61832367 257.96156364 -97.0737915 258.96247864 C-99.25444698 263.42884972 -101.65599351 265.63970829 -106 268 C-111.10886596 268.9758508 -115.65156707 268.56389014 -120.4375 266.5625 C-127.14225979 259.85774021 -128.98405482 249.108909 -131.6875 240.25 C-132.12560642 238.8290999 -132.56425521 237.40836693 -133.00341797 235.98779297 C-133.90230178 233.07765357 -134.79829053 230.16664768 -135.69189453 227.25488281 C-137.28418634 222.06970112 -138.89673697 216.8909098 -140.5090332 211.71191406 C-141.97832374 206.98935521 -143.44094348 202.26474256 -144.90332031 197.54003906 C-146.03471967 193.88792626 -147.16969702 190.23693568 -148.3046875 186.5859375 C-149.03662031 184.22400852 -149.76839739 181.86203128 -150.5 179.5 C-150.83854004 178.41348145 -151.17708008 177.32696289 -151.52587891 176.20751953 C-151.83702637 175.20060059 -152.14817383 174.19368164 -152.46875 173.15625 C-152.74138672 172.27775391 -153.01402344 171.39925781 -153.29492188 170.49414062 C-153.99692541 168.01087603 -154.52913061 165.53632547 -155 163 C-156.01835937 162.88011719 -157.03671875 162.76023437 -158.0859375 162.63671875 C-161.83370127 162.02705259 -165.05391404 161.08085122 -168.625 159.8125 C-174.51287553 157.77549751 -180.43648784 155.98492278 -186.4375 154.3125 C-199.10755921 150.75923805 -211.64691767 146.794068 -224.19158936 142.82597351 C-228.37517041 141.50475976 -232.56677375 140.21349987 -236.765625 138.94140625 C-237.77633057 138.63130615 -238.78703613 138.32120605 -239.82836914 138.00170898 C-241.67128688 137.43660629 -243.5166859 136.87950291 -245.36499023 136.33227539 C-251.46039869 134.44368512 -255.62682039 132.50960412 -258.8125 126.6875 C-260.08279071 122.74291307 -260.52295387 120.10892324 -260 116 C-255.91965824 108.29268779 -249.77538383 105.19591055 -242.109375 101.8671875 C-241.22973083 101.4781424 -240.35008667 101.08909729 -239.44378662 100.68826294 C-236.54893741 99.41005351 -233.64954029 98.14252754 -230.75 96.875 C-228.71129985 95.97721777 -226.67289234 95.07877075 -224.63476562 94.1796875 C-219.42076364 91.88183041 -214.2029462 89.59279269 -208.98364258 87.30700684 C-204.48256799 85.33527761 -199.98354041 83.35889321 -195.484375 81.3828125 C-190.49294549 79.19108093 -185.50113308 77.00023318 -180.50805664 74.81225586 C-167.3839722 69.05936874 -154.28163443 63.25820921 -141.1875 57.4375 C-140.26517578 57.02765869 -139.34285156 56.61781738 -138.39257812 56.19555664 C-128.89218605 51.97306544 -119.3994757 47.73435352 -109.921875 43.4609375 C-100.86059557 39.37637158 -91.77441569 35.3498971 -82.67944336 31.34100342 C-69.88018514 25.69931154 -57.08689074 20.04449492 -44.30859375 14.35546875 C-43.27332047 13.89466415 -42.23804718 13.43385956 -41.17140198 12.95909119 C-36.14084969 10.71964953 -31.11107394 8.47848432 -26.08227539 6.23510742 C-24.26320439 5.42492076 -22.44411365 4.61477841 -20.625 3.8046875 C-19.37649513 3.24668709 -19.37649513 3.24668709 -18.10276794 2.67741394 C-16.95748375 2.1678289 -16.95748375 2.1678289 -15.7890625 1.64794922 C-14.79447021 1.2042952 -14.79447021 1.2042952 -13.77978516 0.75167847 C-8.88163938 -1.31701544 -5.12768347 -1.13071995 0 0 Z " fill="#E8DEDA" transform="translate(364,132)"/>
<path d="M0 0 C0 73.92 0 147.84 0 224 C-10.80487805 224 -10.80487805 224 -15 220 C-19.17882157 212.69440456 -21.2451382 204.25336588 -23.6875 196.25 C-24.12560642 194.8290999 -24.56425521 193.40836693 -25.00341797 191.98779297 C-25.90230178 189.07765357 -26.79829053 186.16664768 -27.69189453 183.25488281 C-29.28418634 178.06970112 -30.89673697 172.8909098 -32.5090332 167.71191406 C-33.97832374 162.98935521 -35.44094348 158.26474256 -36.90332031 153.54003906 C-38.03471967 149.88792626 -39.16969702 146.23693568 -40.3046875 142.5859375 C-41.03662031 140.22400852 -41.76839739 137.86203128 -42.5 135.5 C-42.83854004 134.41348145 -43.17708008 133.32696289 -43.52587891 132.20751953 C-43.83702637 131.20060059 -44.14817383 130.19368164 -44.46875 129.15625 C-44.74138672 128.27775391 -45.01402344 127.39925781 -45.29492188 126.49414062 C-45.99692541 124.01087603 -46.52913061 121.53632547 -47 119 C-48.01835937 118.88011719 -49.03671875 118.76023437 -50.0859375 118.63671875 C-53.83370127 118.02705259 -57.05391404 117.08085122 -60.625 115.8125 C-66.51287553 113.77549751 -72.43648784 111.98492278 -78.4375 110.3125 C-91.10755921 106.75923805 -103.64691767 102.794068 -116.19158936 98.82597351 C-120.37517041 97.50475976 -124.56677375 96.21349987 -128.765625 94.94140625 C-129.77633057 94.63130615 -130.78703613 94.32120605 -131.82836914 94.00170898 C-133.67128688 93.43660629 -135.5166859 92.87950291 -137.36499023 92.33227539 C-143.46039869 90.44368512 -147.62682039 88.50960412 -150.8125 82.6875 C-152.08279071 78.74291307 -152.52295387 76.10892324 -152 72 C-147.91965824 64.29268779 -141.77538383 61.19591055 -134.109375 57.8671875 C-133.22973083 57.4781424 -132.35008667 57.08909729 -131.44378662 56.68826294 C-128.54893741 55.41005351 -125.64954029 54.14252754 -122.75 52.875 C-120.71129985 51.97721777 -118.67289234 51.07877075 -116.63476562 50.1796875 C-111.42076364 47.88183041 -106.2029462 45.59279269 -100.98364258 43.30700684 C-96.48256799 41.33527762 -91.98353872 39.35889705 -87.484375 37.3828125 C-82.50106452 35.19459987 -77.51735588 33.00730841 -72.53222656 30.82324219 C-53.82304363 22.62342891 -35.16213246 14.31498241 -16.50195312 6.00439453 C-15.39122437 5.51232513 -15.39122437 5.51232513 -14.25805664 5.01031494 C-12.67671224 4.30277916 -11.10076968 3.58310311 -9.52905273 2.85443115 C-8.33034546 2.30362885 -8.33034546 2.30362885 -7.10742188 1.74169922 C-6.39066284 1.40774139 -5.67390381 1.07378357 -4.9354248 0.72970581 C-3 0 -3 0 0 0 Z " fill="#F2EDE9" transform="translate(256,176)"/>
</svg>
